<svg xmlns="http://www.w3.org/2000/svg" width="14" height="12" viewBox="0 0 14 12">
    <g fill="none" fill-rule="evenodd">
        <g fill="#333" fill-rule="nonzero" stroke="#333" stroke-width=".3">
            <path d="M10.643 1H1.357A.357.357 0 0 0 1 1.357v9.286c0 .197.16.357.357.357h9.286c.197 0 .357-.16.357-.357V1.357A.357.357 0 0 0 10.643 1zm-.357 9.286H1.714V1.714h8.572v8.572z"/>
            <path d="M8.753 4.824l-.506-.505L5.286 7.28 3.753 5.747l-.506.505 2.039 2.039z"/>
        </g>
        <circle cx="10.5" cy="8.5" r="3.5" fill="#FFF"/>
        <path fill="#333" fill-rule="nonzero" stroke="#333" stroke-width=".3" d="M12.268 6.732A2.484 2.484 0 0 0 10.5 6c-.668 0-1.296.26-1.768.732A2.484 2.484 0 0 0 8 8.5c0 .668.26 1.296.732 1.768S9.832 11 10.5 11c.668 0 1.296-.26 1.768-.732S13 9.168 13 8.5c0-.668-.26-1.296-.732-1.768zM10.5 10.61A2.112 2.112 0 0 1 8.39 8.5c0-1.163.947-2.11 2.11-2.11 1.163 0 2.11.947 2.11 2.11 0 1.163-.947 2.11-2.11 2.11zm.195-2.305h.88v.391h-.88v.879h-.39v-.879h-.88v-.39h.88v-.88h.39v.88z"/>
    </g>
</svg>
